<svg xmlns="http://www.w3.org/2000/svg" viewBox="0 0 256 256" fill="#f8f8f2"><path d="M224,48H32A16,16,0,0,0,16,64V192a16,16,0,0,0,16,16H224a16,16,0,0,0,16-16V64A16,16,0,0,0,224,48Zm0,144H32V64H224ZM80,104a8,8,0,0,1-8,8H56a8,8,0,0,1,0-16H72A8,8,0,0,1,80,104Zm48,0a8,8,0,0,1-8,8H104a8,8,0,0,1,0-16h16A8,8,0,0,1,128,104Zm48,0a8,8,0,0,1-8,8H152a8,8,0,0,1,0-16h16A8,8,0,0,1,176,104Zm32,0a8,8,0,0,1-8,8H184a8,8,0,0,1,0-16h16A8,8,0,0,1,208,104ZM80,136a8,8,0,0,1-8,8H56a8,8,0,0,1,0-16H72A8,8,0,0,1,80,136Zm80,0a8,8,0,0,1-8,8H104a8,8,0,0,1,0-16h48A8,8,0,0,1,160,136Zm48,0a8,8,0,0,1-8,8H184a8,8,0,0,1,0-16h16A8,8,0,0,1,208,136Zm-16,32a8,8,0,0,1-8,8H72a8,8,0,0,1,0-16H184A8,8,0,0,1,192,168Z"/></svg>
