<svg xmlns="http://www.w3.org/2000/svg" viewBox="0 0 256 256" fill="#f8f8f2"><path d="M200.77,53.89A103.27,103.27,0,0,0,128,24h-1.07A104,104,0,0,0,24,128c0,43.15,26.86,79.22,65.49,95.69A20,20,0,0,0,116,204V192a12,12,0,0,1,24,0v12a20,20,0,0,0,26.51,19.05C199.28,209.73,232,170.16,232,128A103.27,103.27,0,0,0,200.77,53.89ZM40,128a88,88,0,0,1,87-88h.9c29.43.46,58.67,14.43,77.46,37A90.47,90.47,0,0,1,216,128v0c0,36.62-26.76,71.2-62,82.28V192a28,28,0,0,0-56,0v18.31C61.4,199.22,40,165.44,40,128Zm96,44a16,16,0,1,1,16-16A16,16,0,0,1,136,172Zm-44-16a16,16,0,1,1-16-16A16,16,0,0,1,92,156Zm8-56a16,16,0,1,1-16-16A16,16,0,0,1,100,100Zm52,0a16,16,0,1,1-16-16A16,16,0,0,1,152,100Zm28,56a16,16,0,1,1-16-16A16,16,0,0,1,180,156Z"/></svg>
