<svg xmlns="http://www.w3.org/2000/svg" width="256" height="256" viewBox="0 0 256 256" fill="#f8f8f2">
  <path d="M208,128a16,16,0,0,1-16,16H144l-24,56a8,8,0,0,1-14.72,0L81.31,144H32a16,16,0,0,1,0-32H81.31L105.28,56A8,8,0,0,1,120,56l24,56h48A16,16,0,0,1,208,128Z" opacity="0.4"/>
  <path d="M197.58,66.22l-19.8-8.4-8.4-19.8a6,6,0,0,0-11.08,0l-8.4,19.8-19.8,8.4a6,6,0,0,0,0,11.08l19.8,8.4,8.4,19.8a6,6,0,0,0,11.08,0l8.4-19.8,19.8-8.4A6,6,0,0,0,197.58,66.22Z"/>
  <path d="M115.58,182.22l-11.8-5-5-11.8a6,6,0,0,0-11.08,0l-5,11.8-11.8,5a6,6,0,0,0,0,11.08l11.8,5,5,11.8a6,6,0,0,0,11.08,0l5-11.8,11.8-5A6,6,0,0,0,115.58,182.22Z"/>
</svg>
