<svg xmlns="http://www.w3.org/2000/svg" viewBox="0 0 256 256" fill="#f8f8f2"><path d="M155.51,24.81a8,8,0,0,0-8.42.88L77.25,80H32A16,16,0,0,0,16,96v64a16,16,0,0,0,16,16H77.25l69.84,54.31A8,8,0,0,0,160,224V32A8,8,0,0,0,155.51,24.81ZM144,207,85.17,162.84A8,8,0,0,0,80,161H32V95H80a8,8,0,0,0,5.17-1.84L144,49ZM200,128a39.74,39.74,0,0,1-7.88,23.6,8,8,0,1,1-12.8-9.6,24,24,0,0,0,0-28,8,8,0,1,1,12.8-9.6A39.74,39.74,0,0,1,200,128Zm48,0a87.55,87.55,0,0,1-22,58.3,8,8,0,0,1-11.95-10.64,72,72,0,0,0,0-95.32A8,8,0,1,1,226,69.7,87.55,87.55,0,0,1,248,128Z"/></svg>
