<svg version="1.1" id="Layer_1" xmlns="http://www.w3.org/2000/svg" xmlns:xlink="http://www.w3.org/1999/xlink" x="0px" y="0px"
	 width="100%" viewBox="0 0 2000 2000" enable-background="new 0 0 2000 2000" xml:space="preserve">
<path fill="#b366ff" opacity="1.000000" stroke="none" 
	d="
M877.654480,899.260254 
	C813.219604,873.407471 749.141052,847.700012 685.065369,821.993652 
	C685.065369,785.130005 685.065613,748.637390 685.065186,712.144775 
	C685.065063,695.813049 685.185608,679.479736 684.963806,663.151001 
	C684.917175,659.718689 686.026306,658.270325 689.115356,657.034119 
	C803.024658,611.445984 916.895752,565.762024 1030.775513,520.099792 
	C1118.599731,484.884979 1206.428345,449.681183 1294.256470,414.475952 
	C1295.461426,413.992981 1296.684570,413.555847 1298.292358,412.948883 
	C1298.292358,471.010010 1298.292358,528.719971 1298.292358,586.811523 
	C1281.763062,593.100952 1265.026367,599.497803 1248.269409,605.840637 
	C1138.017212,647.573730 1027.770020,689.320190 917.468018,730.921204 
	C913.416626,732.449219 911.902771,734.248779 912.130188,738.642395 
	C912.573242,747.200195 912.304749,747.190674 920.380371,750.249756 
	C1045.061523,797.479248 1169.738892,844.718567 1294.428101,891.926697 
	C1296.831543,892.836609 1298.718384,893.401123 1298.710083,896.871460 
	C1298.575073,953.696655 1298.614258,1010.522278 1298.614258,1068.287964 
	C1158.134155,1011.881836 1018.072510,955.643677 877.654480,899.260254 
z"/>
<path fill="#b366ff" opacity="1.000000" stroke="none" 
	d="
M1012.582397,1353.634766 
	C1038.244995,1343.916870 1063.558594,1334.370728 1088.916382,1324.807861 
	C1088.916382,1319.953369 1088.916382,1315.305542 1088.916382,1310.247314 
	C1065.147217,1301.245605 1041.290405,1292.179199 1017.411133,1283.172607 
	C913.783936,1244.086914 810.150513,1205.017334 706.515625,1165.951904 
	C704.023254,1165.012329 701.946167,1164.430054 701.957153,1160.689331 
	C702.122803,1104.358032 702.078857,1048.026245 702.090271,991.694458 
	C702.090332,991.365295 702.175903,991.036133 702.298401,990.152954 
	C709.283875,992.908508 716.166809,995.581726 723.018677,998.332458 
	C918.998901,1077.010376 1114.972534,1155.704712 1310.981567,1234.310181 
	C1314.363281,1235.666382 1315.730957,1237.179077 1315.718872,1241.061768 
	C1315.559448,1292.226562 1315.574585,1343.392212 1315.689697,1394.557251 
	C1315.697998,1398.239380 1314.718506,1399.921387 1311.096436,1401.373169 
	C1109.830322,1482.046997 908.620361,1562.860352 707.401306,1643.651245 
	C705.890503,1644.257935 704.333374,1644.749146 702.067566,1645.553833 
	C702.067566,1643.664795 702.067566,1642.268188 702.067566,1640.871460 
	C702.067444,1585.706299 702.080566,1530.541016 702.028992,1475.375854 
	C702.026306,1472.548096 702.133484,1470.610840 705.497375,1469.346924 
	C807.774170,1430.916992 909.999817,1392.351196 1012.582397,1353.634766 
z"/>
</svg>
